<?xml version="1.0" encoding="UTF-8" standalone="no"?>
<svg
   xmlns:dc="http://purl.org/dc/elements/1.1/"
   xmlns:cc="http://creativecommons.org/ns#"
   xmlns:rdf="http://www.w3.org/1999/02/22-rdf-syntax-ns#"
   xmlns:svg="http://www.w3.org/2000/svg"
   xmlns="http://www.w3.org/2000/svg"
   id="svg18"
   version="1.1"
   viewBox="0 0 227 315"
   height="315mm"
   width="227mm">
  <defs
     id="defs12" />
  <metadata
     id="metadata15">
    <rdf:RDF>
      <cc:Work
         rdf:about="">
        <dc:format>image/svg+xml</dc:format>
        <dc:type
           rdf:resource="http://purl.org/dc/dcmitype/StillImage" />
        <dc:title></dc:title>
      </cc:Work>
    </rdf:RDF>
  </metadata>
  <g
     transform="translate(0,18)"
     id="layer1">
    <g
       id="text11"
       style="font-style:normal;font-weight:normal;font-size:10.58333397px;line-height:1.25;font-family:sans-serif;letter-spacing:0px;word-spacing:0px;fill:#000000;fill-opacity:1;stroke:none;stroke-width:0.26458335"
       aria-label="0">
      <path
         id="path81"
         style="font-style:normal;font-variant:normal;font-weight:normal;font-stretch:normal;font-size:176.3888855px;font-family:'DejaVu Sans Mono';-inkscape-font-specification:'DejaVu Sans Mono';stroke-width:0.26458335"
         d="m 97.394182,139.19856 q 0,-4.73701 3.272838,-8.1821 3.35897,-3.4451 8.00985,-3.4451 4.82313,0 8.26823,3.4451 3.44509,3.44509 3.44509,8.1821 0,4.82313 -3.44509,8.1821 -3.35897,3.35897 -8.26823,3.35897 -4.82313,0 -8.09597,-3.27284 -3.186718,-3.27284 -3.186718,-8.26823 z M 108.84912,86.660854 q -12.143957,0 -18.172874,13.091362 -5.94279,13.091364 -5.94279,39.876984 0,26.69949 5.94279,39.79085 6.028917,13.09136 18.172874,13.09136 12.23009,0 18.17288,-13.09136 6.02892,-13.09136 6.02892,-39.79085 0,-26.78562 -6.02892,-39.876984 -5.94279,-13.091362 -18.17288,-13.091362 z m 0,-13.780382 q 20.58445,0 31.09199,16.880968 10.59367,16.88097 10.59367,49.86776 0,32.90066 -10.59367,49.78162 -10.50754,16.88097 -31.09199,16.88097 -20.584441,0 -31.091982,-16.88097 -10.507541,-16.88096 -10.507541,-49.78162 0,-32.98679 10.507541,-49.86776 10.507541,-16.880968 31.091982,-16.880968 z" />
    </g>
  </g>
</svg>
